<?xml version="1.0" encoding="utf-8"?>
<!-- Generator: Adobe Illustrator 25.3.1, SVG Export Plug-In . SVG Version: 6.00 Build 0)  -->
<svg version="1.1" id="Layer_1" xmlns="http://www.w3.org/2000/svg" xmlns:xlink="http://www.w3.org/1999/xlink" x="0px" y="0px"
	 viewBox="0 0 22 22" style="enable-background:new 0 0 22 22;" xml:space="preserve">
<style type="text/css">
	.st0{fill:#FFFFFF;}
</style>
<path id="f" class="st0" d="M12.6,22V12H16l0.4-4h-3.8V5.6c0-1.1,0.4-1.8,2-1.8h2.1V0.2c-0.4,0-1.6-0.1-2.9-0.1c-2.9,0-5,1.8-5,5.2
	v2.8H5.3V12h3.4v10H12.6z"/>
<path id="f_1_" class="st0" d="M12.4,22V12h3.4l0.4-4h-3.8V5.6c0-1.1,0.4-1.8,2-1.8h2.1V0.2c-0.4,0-1.6-0.1-2.9-0.1
	c-2.9,0-5,1.8-5,5.2v2.8H5.1V12h3.4v10H12.4z"/>
</svg>
