<?xml version="1.0" encoding="utf-8"?>
<!-- Generator: Adobe Illustrator 25.3.1, SVG Export Plug-In . SVG Version: 6.00 Build 0)  -->
<svg version="1.1" id="Layer_1" xmlns="http://www.w3.org/2000/svg" xmlns:xlink="http://www.w3.org/1999/xlink" x="0px" y="0px"
	 viewBox="0 0 22 22" style="enable-background:new 0 0 22 22;" xml:space="preserve">
<style type="text/css">
	.st0{fill:#FFFFFF;}
</style>
<path class="st0" d="M19.2,7.1c0,0.2,0,0.4,0,0.6C19.2,13.4,15,20,7.1,20l0,0c-2.3,0-4.5-0.7-6.5-1.9c0.4,0,0.7,0.1,1,0.1
	c1.9,0,3.8-0.7,5.3-1.8c-1.8,0-3.4-1.3-4-3c0.7,0.1,1.3,0.1,1.9-0.1C2.9,12.8,1.5,11,1.5,9V8.9C2,9.2,2.7,9.4,3.3,9.5
	C1.5,8.2,0.9,5.6,2,3.7C4.2,6.4,7.4,8,10.8,8.2c-0.4-1.5,0.1-3.1,1.2-4.1c1.7-1.6,4.4-1.5,6.1,0.2C19,4.1,20,3.7,20.8,3.2
	c-0.3,1-0.9,1.8-1.9,2.4c0.9-0.1,1.7-0.3,2.5-0.7C20.8,5.7,20.1,6.5,19.2,7.1L19.2,7.1z"/>
</svg>
