<?xml version="1.0" encoding="utf-8"?>
<!-- Generator: Adobe Illustrator 25.3.1, SVG Export Plug-In . SVG Version: 6.00 Build 0)  -->
<svg version="1.1" id="Layer_1" xmlns="http://www.w3.org/2000/svg" xmlns:xlink="http://www.w3.org/1999/xlink" x="0px" y="0px"
	 viewBox="0 0 22 22" style="enable-background:new 0 0 22 22;" xml:space="preserve">
<style type="text/css">
	.st0{fill:#FFFFFF;}
</style>
<g>
	<path class="st0" d="M0,11c-0.1-3.6,3-6.9,6.6-7c1.8-0.2,3.6,0.6,5,1.7C11.1,6.4,10.5,7,9.9,7.6C8.7,6.8,7.2,6.3,5.7,6.8
		C3.4,7.4,2,10.2,2.9,12.4c0.7,2.4,3.6,3.7,5.8,2.7c1.2-0.4,1.9-1.5,2.3-2.6c-1.3,0-2.7,0-4,0c0-0.8,0-1.6,0-2.4c2.2,0,4.5,0,6.7,0
		c0.1,1.9-0.2,4-1.4,5.6c-1.7,2.2-4.9,2.9-7.5,2C2,16.7-0.1,13.9,0,11L0,11z M18,8h2c0,0.7,0,1.3,0,2c0.7,0,1.3,0,2,0v2h-2
		c0,0.7,0,1.3,0,2c-0.7,0-1.3,0-2,0c0-0.7,0-1.3,0-2c-0.7,0-1.3,0-2,0v-2c0.7,0,1.3,0,2,0C18,9.3,18,8.7,18,8z"/>
</g>
</svg>
