<?xml version="1.0" encoding="utf-8"?>
<!-- Generator: Adobe Illustrator 25.3.1, SVG Export Plug-In . SVG Version: 6.00 Build 0)  -->
<svg version="1.1" id="Layer_1" xmlns="http://www.w3.org/2000/svg" xmlns:xlink="http://www.w3.org/1999/xlink" x="0px" y="0px"
	 viewBox="0 0 22 22" style="enable-background:new 0 0 22 22;" xml:space="preserve">
<style type="text/css">
	.st0{fill-rule:evenodd;clip-rule:evenodd;fill:#FFFFFF;}
</style>
<path id="path28" class="st0" d="M6.1,19.5V8H2.3v11.4H6.1z M4.2,6.4c1.4,0,2.1-0.8,2.1-2s-0.8-2-2.1-2s-2.1,0.8-2.1,2
	S3,6.4,4.2,6.4L4.2,6.4L4.2,6.4z"/>
<path id="path30" class="st0" d="M8.2,19.5h3.8v-6.4c0-0.3,0-0.6,0.1-1c0.3-0.6,1-1.4,1.9-1.4c1.4,0,1.9,1.1,1.9,2.5v6.1h3.8v-6.6
	c0-3.5-1.9-5.2-4.3-5.2c-2,0-3,1.2-3.5,1.9l0,0V8H8.2C8.4,9.1,8.2,19.5,8.2,19.5L8.2,19.5z"/>
</svg>
