<?xml version="1.0" encoding="utf-8"?>
<!-- Generator: Adobe Illustrator 25.3.1, SVG Export Plug-In . SVG Version: 6.00 Build 0)  -->
<svg version="1.1" id="Layer_1" xmlns="http://www.w3.org/2000/svg" xmlns:xlink="http://www.w3.org/1999/xlink" x="0px" y="0px"
	 viewBox="0 0 22 22" style="enable-background:new 0 0 22 22;" xml:space="preserve">
<style type="text/css">
	.st0{fill-rule:evenodd;clip-rule:evenodd;fill:#FFFFFF;}
</style>
<path id="Path-3" class="st0" d="M1.8,10.6C6.9,8.3,10.3,6.9,12,6.2c5-2,6-2.4,6.7-2.4c0.1,0,0.5,0,0.7,0.2c0.2,0.1,0.2,0.3,0.2,0.5
	c0,0.1,0.1,0.5,0,0.7c-0.2,2.8-1.4,9.5-2,12.7c-0.2,1.4-0.7,1.8-1.2,1.8c-1,0.1-1.8-0.7-2.8-1.4c-1.6-1-2.4-1.6-4-2.6
	c-1.7-1.1-0.6-1.8,0.3-2.8c0.2-0.2,4.8-4.4,4.9-4.8c0,0,0-0.2-0.1-0.3s-0.2-0.1-0.3,0c-0.1,0-2.6,1.7-7.4,4.9
	c-0.7,0.5-1.4,0.7-1.9,0.7c-0.7,0-1.8-0.3-2.7-0.7c-1.1-0.3-1.9-0.6-1.9-1.1C0.6,11.3,1,11,1.8,10.6z"/>
</svg>
